<svg width="192" height="192" viewBox="0 0 192 192" fill="none" xmlns="http://www.w3.org/2000/svg">
<rect width="192" height="192" rx="33" fill="#0055D5"/>
<path d="M47.2709 64.6757C57.1135 58.6784 65.0734 53.7723 65.2528 36.7288C47.3378 45.313 33.8331 61.3723 29 80.7232C33.9608 72.7872 40.8562 68.5798 47.2709 64.6757ZM49.0685 145.436C51.4653 113.871 65.633 102.854 79.3719 92.1886C94.2971 80.6042 108.401 69.6264 107.607 31.115C103.85 30.4319 100.041 30.0589 96.2193 30C97.7949 61.6994 82.9367 70.8515 68.5013 79.6408C53.8772 88.5462 38.7848 97.7905 37.6229 132.035C40.8234 136.971 44.6713 141.477 49.0685 145.436ZM121.918 110.731C135.55 100.035 148.41 89.8545 147.723 54.364C144.048 49.9909 139.821 46.0905 135.143 42.7559C134.951 81.529 119.533 93.6485 104.59 105.37C90.5255 116.404 77.2489 126.844 76.2756 160.422C81.8843 161.998 87.7819 162.893 93.8773 163C95.4802 131.562 108.897 120.95 121.918 110.731ZM144.766 124.602C135.003 130.418 126.535 135.517 125.549 155.968C144.271 146.771 158.07 129.383 162 108.631C157.614 116.939 150.962 120.912 144.766 124.602Z" fill="white"/>
</svg>
