<svg width="512" height="512" viewBox="0 0 512 512" fill="none" xmlns="http://www.w3.org/2000/svg">
<rect width="512" height="512" rx="33" fill="#0055D5"/>
<path d="M126.056 172.469C152.303 156.476 173.529 143.393 174.008 97.9435C126.234 120.835 90.2218 163.659 77.3335 215.262C90.5624 194.099 108.95 182.879 126.056 172.469ZM130.849 387.83C137.241 303.655 175.022 274.278 211.659 245.836C251.459 214.945 289.069 185.671 286.952 82.9734C276.933 81.1518 266.775 80.1572 256.585 80C260.787 164.532 221.165 188.937 182.67 212.376C143.673 236.123 103.426 260.775 100.328 352.093C108.863 365.257 119.124 377.271 130.849 387.83ZM325.114 295.282C361.468 266.761 395.761 239.612 393.927 144.971C384.127 133.309 372.855 122.908 360.381 114.016C359.87 217.411 318.755 249.729 278.906 280.986C241.401 310.41 205.997 338.249 203.402 427.792C218.358 431.995 234.085 434.381 250.34 434.667C254.614 350.833 290.391 322.534 325.114 295.282ZM386.044 332.271C360.008 347.78 337.427 361.378 334.799 415.914C384.722 391.39 421.521 345.021 432 289.684C420.304 311.838 402.566 322.431 386.044 332.271Z" fill="white"/>
</svg>
